# xmcd
# 
# Track frame offsets:
#     150
#     12579
#     26142
#     47081
#     65103
#     80644
#     94869
#     108987
#     121035
#     134462
#     148503
#     161115
# 
# Disc length: 2512
# 
# Revision: 1
# Processed by: cddbd v1.5.2PL0 Copyright (c) Steve Scherf et al.
# Submitted via: BonkEnc v1.0.8
# 
DISCID=aa09ce0c
DTITLE=Gap Mangione - Diana In The Autumn Wind
DYEAR=1968
DGENRE=Jazz
TTITLE0=Boy With Toys
TTITLE1=Diana In The Autumn Wind
TTITLE2=Long Hair Soulful
TTITLE3=Yesterday
TTITLE4=The XIth Commandment
TTITLE5=St. Thomas
TTITLE6=You're Nobody Till Somebody Loves You
TTITLE7=Pond With Swans
TTITLE8=You Are My Sunshine
TTITLE9=Free Again
TTITLE10=Dream On Little Dreamer
TTITLE11=Graduate Medley
EXTD=YEAR: 1968
EXTT0=
EXTT1=
EXTT2=
EXTT3=
EXTT4=
EXTT5=
EXTT6=
EXTT7=
EXTT8=
EXTT9=
EXTT10=
EXTT11=
PLAYORDER=
